PathFileType	4	(X/Y/Z)	D:\Documents\Paper\paper_03\paper_step_1_data\data_step_3\marker\BD\subject_01.tsv
DataRate	CameraRate	NumFrames	NumMarkers	Units	OrigDataRate	OrigDataStartFrame	OrigNumFrames
200	200	4	43	mm	200	125	1001
Frame#	Time	Top.Head			L.Acromium			R.Acromium			Sternum			L.ASIS			R.ASIS			V.Sacral			R.Knee.Lat			R.Knee.Med			L.Knee.Lat			L.Knee.Med			L.Ankle.Lat			L.Toe.Tip			R.Heel			R.Ankle.Med			R.Ankle.Lat			L.Toe.Med			L.Toe.Lat			L.Heel			L.Ankle.Med			L.Shank1			L.Shank2			R.Toe.Tip			R.Toe.Med			R.Toe.Lat			L.Thigh2			L.Thigh1			L.Thigh3			R.Thigh3			R.Thigh1			R.Thigh2			R.Shank1			R.Shank2			R.Shank3			L.Shank3			L.Shank4			R.Shank4			L.Thigh4			R.Thigh4			R.Heel.Lat			R.Heel.Med			L.Heel.Lat			L.Heel.Med		
		X1	Y1	Z1	X2	Y2	Z2	X3	Y3	Z3	X4	Y4	Z4	X5	Y5	Z5	X6	Y6	Z6	X7	Y7	Z7	X8	Y8	Z8	X9	Y9	Z9	X10	Y10	Z10	X11	Y11	Z11	X12	Y12	Z12	X13	Y13	Z13	X14	Y14	Z14	X15	Y15	Z15	X16	Y16	Z16	X17	Y17	Z17	X18	Y18	Z18	X19	Y19	Z19	X20	Y20	Z20	X21	Y21	Z21	X22	Y22	Z22	X23	Y23	Z23	X24	Y24	Z24	X25	Y25	Z25	X26	Y26	Z26	X27	Y27	Z27	X28	Y28	Z28	X29	Y29	Z29	X30	Y30	Z30	X31	Y31	Z31	X32	Y32	Z32	X33	Y33	Z33	X34	Y34	Z34	X35	Y35	Z35	X36	Y36	Z36	X37	Y37	Z37	X38	Y38	Z38	X39	Y39	Z39	X40	Y40	Z40	X41	Y41	Z41	X42	Y42	Z42	X43	Y43	Z43
126	0.625	927.193	1692.83	-994.95	934.089	1410.636	-818.497	1093.929	1399.271	-1090.187	902.228	1358.6	-1019.958	804.71	911.924	-933.135	928.409	931.723	-1134.664	1009.207	964.191	-953.402	1003.576	474.92	-1166.034	948.632	454.752	-1065.918	849.468	476.397	-847.474	885.961	456.721	-950.59	906.995	102.798	-808.734	726.803	56.499	-869.447	1104.97	34.223	-1104.194	990.316	103.268	-1115.324	1060.666	104.756	-1174.015	786.821	45.287	-908.079	793.467	46.363	-802.845	1001.352	31.458	-814.585	927.101	104.49	-894.675	831.645	388.248	-837.016	829.277	307.635	-819.702	875.996	54.659	-1277.271	900.027	44.535	-1205.411	986.506	37.466	-1275.042	791.427	612.943	-879.499	792.634	695.892	-875.774	836.81	692.298	-830.281	1031.885	656.466	-1156.201	977.265	647.959	-1189.464	978.132	564.939	-1182.4	987.925	390.173	-1205.161	1003.357	303.927	-1210.665	1047.136	399.323	-1181.94	883.38	396.015	-801.776	885.237	309.907	-785.26	1062.461	317.236	-1187.555	838.144	603.538	-834.122	1031.525	568.069	-1149.547	1098.329	32.088	-1172.718	1024.832	25.267	-1101.026	935.333	22.352	-780.042	956.502	27.264	-883.618
127	0.63	927.147	1692.836	-994.989	934.105	1410.636	-818.515	1093.92	1399.289	-1090.224	902.203	1358.618	-1019.969	804.697	911.919	-933.115	928.414	931.752	-1134.685	1009.172	964.19	-953.434	1003.58	474.94	-1166.048	948.634	454.741	-1065.964	849.516	476.428	-847.43	885.992	456.696	-950.555	906.971	102.805	-808.729	726.769	56.56	-869.535	1104.933	34.218	-1104.226	990.344	103.245	-1115.329	1060.663	104.713	-1174.008	786.775	45.258	-908.139	793.453	46.384	-802.846	1001.383	31.468	-814.544	927.12	104.52	-894.681	831.581	388.263	-837.06	829.252	307.612	-819.685	875.993	54.643	-1277.267	900.021	44.549	-1205.408	986.479	37.477	-1275.026	791.422	612.958	-879.489	792.632	695.862	-875.77	836.797	692.292	-830.307	1031.903	656.451	-1156.179	977.256	647.973	-1189.47	978.152	564.933	-1182.38	987.935	390.179	-1205.153	1003.353	303.895	-1210.656	1047.144	399.327	-1181.943	883.398	395.98	-801.77	885.222	309.908	-785.251	1062.45	317.274	-1187.55	838.13	603.543	-834.13	1031.513	568.064	-1149.541	1098.321	32.09	-1172.74	1024.811	25.26	-1101.015	935.344	22.302	-780.081	956.479	27.289	-883.638
128	0.635	927.193	1692.83	-994.95	934.089	1410.636	-818.497	1093.929	1399.271	-1090.187	902.228	1358.6	-1019.958	804.71	911.924	-933.135	928.409	931.723	-1134.664	1009.207	964.191	-953.402	1003.576	474.92	-1166.034	948.632	454.752	-1065.918	849.468	476.397	-847.474	885.961	456.721	-950.59	906.995	102.798	-808.734	726.803	56.499	-869.447	1104.97	34.223	-1104.194	990.316	103.268	-1115.324	1060.666	104.756	-1174.015	786.821	45.287	-908.079	793.467	46.363	-802.845	1001.352	31.458	-814.585	927.101	104.49	-894.675	831.645	388.248	-837.016	829.277	307.635	-819.702	875.996	54.659	-1277.271	900.027	44.535	-1205.411	986.506	37.466	-1275.042	791.427	612.943	-879.499	792.634	695.892	-875.774	836.81	692.298	-830.281	1031.885	656.466	-1156.201	977.265	647.959	-1189.464	978.132	564.939	-1182.4	987.925	390.173	-1205.161	1003.357	303.927	-1210.665	1047.136	399.323	-1181.94	883.38	396.015	-801.776	885.237	309.907	-785.26	1062.461	317.236	-1187.555	838.144	603.538	-834.122	1031.525	568.069	-1149.547	1098.329	32.088	-1172.718	1024.832	25.267	-1101.026	935.333	22.352	-780.042	956.502	27.264	-883.618
129	0.64	927.147	1692.836	-994.989	934.105	1410.636	-818.515	1093.92	1399.289	-1090.224	902.203	1358.618	-1019.969	804.697	911.919	-933.115	928.414	931.752	-1134.685	1009.172	964.19	-953.434	1003.58	474.94	-1166.048	948.634	454.741	-1065.964	849.516	476.428	-847.43	885.992	456.696	-950.555	906.971	102.805	-808.729	726.769	56.56	-869.535	1104.933	34.218	-1104.226	990.344	103.245	-1115.329	1060.663	104.713	-1174.008	786.775	45.258	-908.139	793.453	46.384	-802.846	1001.383	31.468	-814.544	927.12	104.52	-894.681	831.581	388.263	-837.06	829.252	307.612	-819.685	875.993	54.643	-1277.267	900.021	44.549	-1205.408	986.479	37.477	-1275.026	791.422	612.958	-879.489	792.632	695.862	-875.77	836.797	692.292	-830.307	1031.903	656.451	-1156.179	977.256	647.973	-1189.47	978.152	564.933	-1182.38	987.935	390.179	-1205.153	1003.353	303.895	-1210.656	1047.144	399.327	-1181.943	883.398	395.98	-801.77	885.222	309.908	-785.251	1062.45	317.274	-1187.55	838.13	603.543	-834.13	1031.513	568.064	-1149.541	1098.321	32.09	-1172.74	1024.811	25.26	-1101.015	935.344	22.302	-780.081	956.479	27.289	-883.638
